<svg width="20" height="20" viewBox="0 0 20 20" fill="none" xmlns="http://www.w3.org/2000/svg">
<path d="M19.0889 8.19C18.2897 8.05985 17.4789 7.99624 16.6667 8C16.2 8 15.7445 8 15.2889 8.08C14.7218 7.39888 13.9979 6.83605 13.1667 6.43C13.8807 5.72825 14.277 4.81148 14.2778 3.86C14.2778 2.83626 13.826 1.85446 13.0216 1.13057C12.2173 0.406677 11.1264 0 9.98896 0C8.85149 0 7.7606 0.406677 6.95628 1.13057C6.15196 1.85446 5.70011 2.83626 5.70011 3.86C5.70092 4.81148 6.09727 5.72825 6.81121 6.43C5.98499 6.83816 5.26224 7.39668 4.689 8.07C4.25567 8 3.80012 8 3.33346 8C2.5206 8.00284 1.70976 8.07314 0.911252 8.21C0.652412 8.2526 0.418769 8.37649 0.251923 8.55961C0.0850767 8.74274 -0.00414353 8.97321 0.000147899 9.21V17.46C-0.000117191 17.6069 0.0355867 17.7521 0.104721 17.8852C0.173855 18.0182 0.27472 18.136 0.400145 18.23C0.524778 18.3246 0.671011 18.3933 0.828468 18.4313C0.985925 18.4694 1.15075 18.4757 1.31125 18.45C1.97614 18.3197 2.65321 18.246 3.33346 18.23C5.48577 18.2279 7.59138 18.7947 9.38897 19.86L9.53341 19.91C9.68079 19.9676 9.83943 19.9982 10.0001 20C10.1061 19.9988 10.2112 19.9819 10.3112 19.95H10.389L10.5334 19.9C12.3481 18.8073 14.4833 18.2259 16.6667 18.23C17.3455 18.2328 18.0226 18.2931 18.6889 18.41C18.8494 18.4357 19.0142 18.4294 19.1717 18.3913C19.3291 18.3533 19.4754 18.2846 19.6 18.19C19.7254 18.096 19.8263 17.9782 19.8954 17.8452C19.9646 17.7121 20.0003 17.5669 20 17.42V9.17C19.999 8.93664 19.9074 8.71092 19.741 8.53195C19.5747 8.35297 19.344 8.232 19.0889 8.19ZM10.0001 2C10.5206 2.03442 11.0073 2.2448 11.3626 2.58888C11.7178 2.93297 11.9153 3.38529 11.9153 3.855C11.9153 4.32471 11.7178 4.77703 11.3626 5.12112C11.0073 5.4652 10.5206 5.67558 10.0001 5.71C9.47958 5.67558 8.99283 5.4652 8.63757 5.12112C8.28231 4.77703 8.08485 4.32471 8.08485 3.855C8.08485 3.38529 8.28231 2.93297 8.63757 2.58888C8.99283 2.2448 9.47958 2.03442 10.0001 2ZM8.88897 17.33C7.14751 16.6055 5.25196 16.2302 3.33346 16.23C2.96679 16.23 2.60013 16.23 2.22235 16.28V10C3.15408 9.90619 4.09547 9.923 5.02233 10.05H5.14455C6.46854 10.269 7.73729 10.7027 8.88897 11.33V17.33ZM10.0001 9.6C9.50599 9.34348 8.99379 9.11633 8.46675 8.92H8.40009C8.03342 8.79 7.66676 8.66 7.28898 8.56C8.06044 8.00737 9.01417 7.70132 10.0001 7.69C10.9834 7.69561 11.9368 7.99455 12.7112 8.54C11.7679 8.80503 10.859 9.1604 10.0001 9.6ZM17.7778 16.28C15.4963 16.0737 13.195 16.4189 11.1112 17.28V11.28C12.2649 10.6688 13.5345 10.2552 14.8556 10.06H15.0778C15.9711 9.9348 16.8787 9.91463 17.7778 10V16.28Z" fill="#F1F5F9"/>
</svg>
