<svg width="20" height="20" viewBox="0 0 20 20" fill="none" xmlns="http://www.w3.org/2000/svg">
<path d="M18.3659 10.6599C18.2027 10.4774 18.1127 10.2429 18.1127 10C18.1127 9.75713 18.2027 9.52255 18.3659 9.34009L19.6688 7.90029C19.8123 7.74298 19.9015 7.54504 19.9234 7.33487C19.9454 7.1247 19.899 6.91311 19.7909 6.73044L17.7552 3.27092C17.6482 3.08846 17.4853 2.94384 17.2898 2.85766C17.0942 2.77148 16.8759 2.74814 16.6661 2.79098L14.7525 3.17093C14.509 3.22035 14.2555 3.18052 14.0398 3.05894C13.8242 2.93737 13.6613 2.74247 13.5819 2.51102L12.961 0.681267C12.8927 0.482673 12.7626 0.310183 12.5891 0.188176C12.4156 0.0661699 12.2074 0.000818685 11.994 0.00135977H7.92255C7.70058 -0.0100207 7.48093 0.0502795 7.29713 0.17305C7.11333 0.295821 6.9755 0.474315 6.90468 0.681267L6.33467 2.51102C6.25528 2.74247 6.09239 2.93737 5.87674 3.05894C5.6611 3.18052 5.40761 3.22035 5.16412 3.17093L3.19963 2.79098C3.00068 2.76336 2.79787 2.7942 2.61674 2.87961C2.43561 2.96501 2.28426 3.10117 2.18176 3.27092L0.146014 6.73044C0.0352295 6.91107 -0.014583 7.12148 0.00369848 7.33159C0.0219799 7.5417 0.107419 7.74075 0.247801 7.90029L1.5405 9.34009C1.70368 9.52255 1.79368 9.75713 1.79368 10C1.79368 10.2429 1.70368 10.4774 1.5405 10.6599L0.247801 12.0997C0.107419 12.2593 0.0219799 12.4583 0.00369848 12.6684C-0.014583 12.8785 0.0352295 13.0889 0.146014 13.2696L2.18176 16.7291C2.28873 16.9115 2.45161 17.0562 2.64718 17.1423C2.84275 17.2285 3.06102 17.2519 3.27088 17.209L5.18447 16.8291C5.42797 16.7796 5.68145 16.8195 5.8971 16.9411C6.11274 17.0626 6.27563 17.2575 6.35503 17.489L6.97593 19.3187C7.04675 19.5257 7.18459 19.7042 7.36838 19.8269C7.55218 19.9497 7.77183 20.01 7.9938 19.9986H12.0653C12.2787 19.9992 12.4868 19.9338 12.6604 19.8118C12.8339 19.6898 12.964 19.5173 13.0323 19.3187L13.6532 17.489C13.7326 17.2575 13.8954 17.0626 14.1111 16.9411C14.3267 16.8195 14.5802 16.7796 14.8237 16.8291L16.7373 17.209C16.9472 17.2519 17.1654 17.2285 17.361 17.1423C17.5566 17.0562 17.7195 16.9115 17.8264 16.7291L19.8622 13.2696C19.9702 13.0869 20.0166 12.8753 19.9947 12.6651C19.9727 12.455 19.8836 12.257 19.74 12.0997L18.3659 10.6599ZM16.8493 11.9997L17.6636 12.8996L16.3607 15.1193L15.1596 14.8793C14.4265 14.7321 13.6639 14.8545 13.0166 15.2231C12.3692 15.5917 11.8822 16.181 11.648 16.8791L11.2612 17.9989H8.65541L8.28898 16.8591C8.05472 16.161 7.5677 15.5717 6.92036 15.2031C6.27301 14.8345 5.51042 14.7121 4.77733 14.8593L3.57624 15.0993L2.25301 12.8896L3.0673 11.9897C3.56805 11.4398 3.84489 10.7278 3.84489 9.99C3.84489 9.25217 3.56805 8.54022 3.0673 7.99027L2.25301 7.0904L3.55588 4.89069L4.75697 5.13066C5.49006 5.27786 6.25266 5.15554 6.9 4.78691C7.54734 4.41828 8.03436 3.829 8.26862 3.13093L8.65541 2.00109H11.2612L11.648 3.14093C11.8822 3.839 12.3692 4.42827 13.0166 4.79691C13.6639 5.16554 14.4265 5.28786 15.1596 5.14066L16.3607 4.90069L17.6636 7.12039L16.8493 8.02027C16.3541 8.56895 16.0808 9.27678 16.0808 10.01C16.0808 10.7432 16.3541 11.451 16.8493 11.9997ZM9.95829 6.00054C9.15302 6.00054 8.36584 6.23511 7.69629 6.67457C7.02674 7.11404 6.50489 7.73867 6.19673 8.46947C5.88857 9.20028 5.80794 10.0044 5.96504 10.7803C6.12214 11.5561 6.50991 12.2687 7.07931 12.828C7.64872 13.3874 8.37419 13.7683 9.16398 13.9226C9.95377 14.0769 10.7724 13.9977 11.5164 13.695C12.2603 13.3923 12.8962 12.8797 13.3436 12.222C13.791 11.5643 14.0298 10.791 14.0298 10C14.0298 8.93928 13.6008 7.922 12.8373 7.17196C12.0737 6.42191 11.0381 6.00054 9.95829 6.00054ZM9.95829 11.9997C9.55566 11.9997 9.16207 11.8824 8.82729 11.6627C8.49251 11.443 8.23159 11.1307 8.07751 10.7653C7.92343 10.3999 7.88311 9.99778 7.96166 9.60987C8.04021 9.22196 8.2341 8.86565 8.5188 8.58598C8.8035 8.30631 9.16624 8.11586 9.56113 8.0387C9.95603 7.96154 10.3653 8.00114 10.7373 8.15249C11.1093 8.30385 11.4273 8.56016 11.6509 8.88901C11.8746 9.21786 11.994 9.60449 11.994 10C11.994 10.5304 11.7795 11.039 11.3978 11.414C11.016 11.789 10.4982 11.9997 9.95829 11.9997Z" fill="#F1F5F9"/>
</svg>
