<svg width="20" height="20" viewBox="0 0 20 20" fill="none" xmlns="http://www.w3.org/2000/svg">
<path d="M18.8889 6.01673L12.2222 0.763019C11.6111 0.271652 10.82 0 10 0C9.18011 0 8.38896 0.271652 7.77783 0.763019L1.11121 6.01673C0.758287 6.30047 0.476658 6.64853 0.285072 7.03776C0.0934866 7.42698 -0.00365837 7.84842 0.000105326 8.27403V17.0036C0.000105326 17.7983 0.351292 18.5604 0.976409 19.1224C1.60153 19.6843 2.44937 20 3.33342 20H16.6667C17.5507 20 18.3985 19.6843 19.0237 19.1224C19.6488 18.5604 20 17.7983 20 17.0036V8.26404C20.0021 7.84011 19.9042 7.42059 19.7127 7.0332C19.5212 6.6458 19.2404 6.29935 18.8889 6.01673ZM12.2222 18.0024H7.77783V13.0084C7.77783 12.7435 7.89489 12.4894 8.10326 12.3021C8.31164 12.1148 8.59425 12.0096 8.88893 12.0096H11.1111C11.4058 12.0096 11.6884 12.1148 11.8968 12.3021C12.1052 12.4894 12.2222 12.7435 12.2222 13.0084V18.0024ZM17.7778 17.0036C17.7778 17.2685 17.6607 17.5225 17.4523 17.7098C17.2439 17.8972 16.9613 18.0024 16.6667 18.0024H14.4444V13.0084C14.4444 12.2137 14.0933 11.4515 13.4681 10.8896C12.843 10.3276 11.9952 10.012 11.1111 10.012H8.88893C8.00488 10.012 7.15704 10.3276 6.53193 10.8896C5.90681 11.4515 5.55562 12.2137 5.55562 13.0084V18.0024H3.33342C3.03873 18.0024 2.75612 17.8972 2.54775 17.7098C2.33937 17.5225 2.22231 17.2685 2.22231 17.0036V8.26404C2.22251 8.12223 2.2563 7.98208 2.32144 7.85291C2.38658 7.72375 2.48157 7.60854 2.60009 7.51494L9.26671 2.27121C9.46947 2.11109 9.73014 2.02278 10 2.02278C10.2699 2.02278 10.5306 2.11109 10.7334 2.27121L17.4 7.51494C17.5185 7.60854 17.6135 7.72375 17.6786 7.85291C17.7438 7.98208 17.7776 8.12223 17.7778 8.26404V17.0036Z" fill="#0D9FDB"/>
</svg>
